<svg width="1200" height="800" viewBox="0 0 1200 800" xmlns="http://www.w3.org/2000/svg" fill="none">
  <rect width="1200" height="800" rx="32" fill="#FFFFFF" stroke="#E5E7EB" stroke-width="2"/>
  <rect x="160" y="180" width="260" height="360" rx="16" fill="#F5F2EB" stroke="#D1D5DB"/>
  <rect x="470" y="180" width="260" height="360" rx="16" fill="#FFFFFF" stroke="#D1D5DB"/>
  <rect x="780" y="180" width="260" height="360" rx="16" fill="#F5F2EB" stroke="#D1D5DB"/>
  <rect x="200" y="220" width="180" height="24" rx="8" fill="#D1D5DB"/>
  <rect x="510" y="220" width="180" height="24" rx="8" fill="#D1D5DB"/>
  <rect x="820" y="220" width="180" height="24" rx="8" fill="#D1D5DB"/>
  <rect x="200" y="260" width="180" height="16" rx="6" fill="#E5E7EB"/>
  <rect x="510" y="260" width="180" height="16" rx="6" fill="#E5E7EB"/>
  <rect x="820" y="260" width="180" height="16" rx="6" fill="#E5E7EB"/>
  <rect x="200" y="440" width="180" height="40" rx="10" fill="#111827" opacity="0.9"/>
  <rect x="510" y="440" width="180" height="40" rx="10" fill="#111827" opacity="0.9"/>
  <rect x="820" y="440" width="180" height="40" rx="10" fill="#111827" opacity="0.9"/>
  <text x="160" y="150" fill="#111827" font-family="Inter" font-size="28" font-weight="700">Plan Comparison Cards</text>
</svg>
